<svg xmlns="http://www.w3.org/2000/svg" width="246" height="60" viewBox="0 0 246 60">
    <g fill="none" fill-rule="evenodd">
        <g fill-rule="nonzero">
            <path fill="#222020" d="M3.73 50.51c.497 0 .952-.084 1.367-.254.414-.17.767-.417 1.057-.744l-.59-.572c-.484.508-1.08.762-1.788.762-.473 0-.9-.106-1.28-.317-.382-.212-.68-.504-.895-.876-.215-.373-.322-.789-.322-1.249 0-.46.107-.876.322-1.248.215-.372.513-.664.894-.876.382-.212.808-.318 1.28-.318.715 0 1.311.251 1.79.754l.59-.572c-.291-.327-.642-.574-1.054-.74-.411-.167-.865-.25-1.362-.25-.635 0-1.21.14-1.725.422-.514.282-.917.669-1.207 1.162-.29.493-.436 1.049-.436 1.666 0 .618.145 1.173.436 1.666.29.493.691.88 1.203 1.162.511.282 1.085.422 1.72.422zm7.06 0c.636 0 1.211-.14 1.726-.422.514-.281.917-.669 1.207-1.162.29-.493.436-1.048.436-1.666 0-.617-.145-1.173-.436-1.666-.29-.493-.693-.88-1.207-1.162-.515-.281-1.09-.422-1.725-.422-.642 0-1.22.14-1.735.422-.514.282-.918.67-1.212 1.167-.293.496-.44 1.05-.44 1.661s.147 1.165.44 1.662c.294.496.698.885 1.212 1.166.515.282 1.093.422 1.735.422zm0-.808c-.465 0-.888-.106-1.266-.317-.378-.212-.675-.504-.89-.876-.215-.373-.322-.789-.322-1.249 0-.46.107-.876.322-1.248.215-.372.512-.664.89-.876.378-.212.8-.318 1.267-.318.466 0 .885.106 1.257.318.372.212.666.504.88.876.215.372.323.788.323 1.248 0 .46-.108.876-.322 1.249-.215.372-.509.664-.881.876-.372.211-.791.317-1.257.317zm6.235.736v-4.603l2.297 3.831h.417l2.297-3.858.01 4.63h.87l-.008-6.355h-.745l-2.614 4.466-2.651-4.466h-.745v6.355h.872zm9.275 0v-4.603l2.297 3.831h.418l2.297-3.858.009 4.63h.872l-.01-6.355h-.744l-2.615 4.466-2.65-4.466h-.745v6.355h.871zm11.037.072c.848 0 1.507-.24 1.98-.721.472-.482.708-1.18.708-2.093v-3.613h-.881v3.577c0 .69-.154 1.203-.463 1.539-.309.335-.754.503-1.335.503-1.192 0-1.788-.68-1.788-2.042v-3.577h-.908v3.613c0 .908.236 1.604.708 2.088s1.132.726 1.98.726zm6.062-.072v-4.74l3.813 4.74h.744v-6.355h-.907v4.739l-3.814-4.74h-.744v6.356h.908zm7.977 0v-6.355h-.908v6.355h.908zm5.354.072c.496 0 .951-.084 1.366-.254.415-.17.767-.417 1.058-.744l-.59-.572c-.485.508-1.08.762-1.789.762-.472 0-.899-.106-1.28-.317-.381-.212-.68-.504-.894-.876-.215-.373-.323-.789-.323-1.249 0-.46.108-.876.323-1.248.215-.372.513-.664.894-.876.381-.212.808-.318 1.28-.318.714 0 1.31.251 1.789.754l.59-.572c-.29-.327-.642-.574-1.053-.74-.412-.167-.866-.25-1.362-.25-.636 0-1.21.14-1.725.422-.515.282-.917.669-1.208 1.162-.29.493-.435 1.049-.435 1.666 0 .618.145 1.173.435 1.666.29.493.692.88 1.203 1.162.512.282 1.085.422 1.72.422zm4.146-.072l.699-1.589h3.377l.7 1.589h.953l-2.888-6.355h-.898l-2.878 6.355h.935zm3.758-2.315h-2.741l1.37-3.114 1.371 3.114zm5.363 2.315v-5.566h2.179v-.79h-5.257v.79h2.18v5.566h.898zm8.386 0v-.79h-3.704v-2.052h3.186v-.772H74.68v-1.952h3.577v-.79H73.77v6.356h4.612zm7.284 0v-5.566h2.18v-.79h-5.258v.79h2.18v5.566h.898zm6.552.072c.636 0 1.21-.14 1.725-.422.515-.281.917-.669 1.208-1.162.29-.493.435-1.048.435-1.666 0-.617-.145-1.173-.435-1.666-.291-.493-.693-.88-1.208-1.162-.514-.281-1.09-.422-1.725-.422-.641 0-1.22.14-1.734.422s-.918.67-1.212 1.167c-.294.496-.44 1.05-.44 1.661s.146 1.165.44 1.662c.294.496.698.885 1.212 1.166.514.282 1.093.422 1.734.422zm0-.808c-.466 0-.888-.106-1.266-.317-.379-.212-.675-.504-.89-.876-.215-.373-.322-.789-.322-1.249 0-.46.107-.876.322-1.248.215-.372.511-.664.89-.876.378-.212.8-.318 1.266-.318.466 0 .885.106 1.258.318.372.212.665.504.88.876.215.372.322.788.322 1.248 0 .46-.107.876-.322 1.249-.215.372-.508.664-.88.876-.373.211-.792.317-1.258.317zm11.252.808c.496 0 .952-.084 1.366-.254.415-.17.767-.417 1.058-.744l-.59-.572c-.484.508-1.08.762-1.789.762-.472 0-.899-.106-1.28-.317-.381-.212-.68-.504-.894-.876-.215-.373-.322-.789-.322-1.249 0-.46.107-.876.322-1.248.215-.372.513-.664.894-.876.381-.212.808-.318 1.28-.318.714 0 1.31.251 1.789.754l.59-.572c-.29-.327-.642-.574-1.053-.74-.412-.167-.866-.25-1.362-.25-.636 0-1.21.14-1.725.422-.515.282-.917.669-1.208 1.162-.29.493-.435 1.049-.435 1.666 0 .618.145 1.173.435 1.666.291.493.692.88 1.203 1.162.512.282 1.085.422 1.72.422zm7.06 0c.636 0 1.21-.14 1.725-.422.515-.281.917-.669 1.208-1.162.29-.493.435-1.048.435-1.666 0-.617-.145-1.173-.435-1.666-.29-.493-.693-.88-1.208-1.162-.514-.281-1.09-.422-1.725-.422-.641 0-1.22.14-1.734.422s-.918.67-1.212 1.167c-.293.496-.44 1.05-.44 1.661s.147 1.165.44 1.662c.294.496.698.885 1.212 1.166.515.282 1.093.422 1.734.422zm0-.808c-.466 0-.888-.106-1.266-.317-.379-.212-.675-.504-.89-.876-.215-.373-.322-.789-.322-1.249 0-.46.107-.876.322-1.248.215-.372.511-.664.89-.876.378-.212.8-.318 1.266-.318.466 0 .885.106 1.258.318.372.212.665.504.88.876.215.372.323.788.323 1.248 0 .46-.108.876-.323 1.249-.215.372-.508.664-.88.876-.373.211-.792.317-1.258.317zm9.712.736v-.79h-3.441v-5.565h-.908v6.355h4.349zm5.998 0v-.79H122.8v-5.565h-.908v6.355h4.349zm1.649 0l.7-1.589h3.376l.7 1.589h.953l-2.887-6.355h-.9l-2.877 6.355h.935zm3.759-2.315h-2.742l1.37-3.114 1.372 3.114zm6.552 2.315c.793 0 1.396-.148 1.81-.445.415-.297.623-.72.623-1.271 0-.412-.106-.752-.318-1.021-.212-.27-.502-.456-.872-.559.26-.127.468-.312.622-.554.155-.242.232-.53.232-.862 0-.515-.198-.917-.595-1.208-.396-.29-.958-.435-1.684-.435h-2.85v6.355h3.032zm-.264-3.586h-1.86v-2.034h1.86c.466 0 .825.086 1.076.259.251.172.377.425.377.758s-.126.585-.377.758c-.251.172-.61.259-1.076.259zm.227 2.85h-2.088v-2.115h2.088c1.035 0 1.553.354 1.553 1.062 0 .363-.13.63-.39.8-.26.169-.648.253-1.163.253zm7.351.808c.636 0 1.21-.14 1.725-.422.515-.281.917-.669 1.208-1.162.29-.493.435-1.048.435-1.666 0-.617-.145-1.173-.435-1.666-.29-.493-.693-.88-1.208-1.162-.514-.281-1.09-.422-1.725-.422-.641 0-1.22.14-1.734.422s-.918.67-1.212 1.167c-.293.496-.44 1.05-.44 1.661s.147 1.165.44 1.662c.294.496.698.885 1.212 1.166.515.282 1.093.422 1.734.422zm0-.808c-.466 0-.888-.106-1.266-.317-.379-.212-.675-.504-.89-.876-.215-.373-.322-.789-.322-1.249 0-.46.107-.876.322-1.248.215-.372.511-.664.89-.876.378-.212.8-.318 1.266-.318.466 0 .885.106 1.258.318.372.212.665.504.88.876.215.372.323.788.323 1.248 0 .46-.108.876-.323 1.249-.215.372-.508.664-.88.876-.373.211-.792.317-1.258.317zm6.27.736v-1.934h1.571c.097 0 .23-.006.4-.018l1.37 1.952h.99l-1.507-2.134c.448-.157.793-.408 1.035-.753.242-.345.363-.763.363-1.253 0-.69-.236-1.232-.708-1.625-.472-.394-1.12-.59-1.943-.59h-2.478v6.355h.908zm1.544-2.706h-1.543v-2.86h1.543c.575 0 1.014.123 1.317.368.302.245.453.598.453 1.058 0 .46-.15.814-.453 1.062-.303.248-.742.372-1.317.372zm4.727 2.706l.7-1.589h3.377l.699 1.589h.953l-2.887-6.355h-.899l-2.878 6.355h.935zm3.759-2.315h-2.742l1.37-3.114 1.372 3.114zm5.362 2.315v-5.566h2.18v-.79H164.1v.79h2.179v5.566h.898zm8.386 0v-.79h-3.704v-2.052h3.187v-.772h-3.187v-1.952h3.577v-.79h-4.485v6.356h4.612z" transform="translate(69.896 5.977)"/>
            <g>
                <path fill="#222020" d="M2.629 25.671L2.629 5.536 11.417 23.111 13.078 23.111 21.9 5.536 21.935 25.671 24.495 25.671 24.495 1.453 21.104 1.453 12.282 19.028 3.425 1.453 0 1.453 0 25.671zM39.718 7.37c5.881 0 8.787 4.047 8.51 10.205H33.352c.45 3.598 3.044 5.951 6.608 5.951 2.249 0 4.22-.83 5.64-2.318l1.487 1.557c-1.73 1.903-4.29 3.01-7.335 3.01-5.362 0-9.064-3.771-9.064-9.203 0-5.432 3.736-9.168 9.03-9.203zm0 2.248c-3.495 0-5.986 2.283-6.366 5.812h12.455c-.173-3.529-2.526-5.812-6.09-5.812zM56.774 25.671L56.774 0 54.075 0 54.075 25.671zM74.453 7.37c5.155 0 8.753 3.805 8.753 9.237 0 5.397-3.529 9.168-8.684 9.168-3.252 0-5.743-1.488-7.092-4.013v10.621H64.73V7.473h2.699v3.91c1.35-2.526 3.84-4.014 7.023-4.014zm-.484 2.317c-3.84 0-6.54 2.872-6.54 6.85 0 4.014 2.7 6.85 6.54 6.85 3.805 0 6.504-2.87 6.504-6.85 0-3.944-2.699-6.85-6.504-6.85z" transform="translate(69.896 5.977)"/>
                <path fill="#F13F2D" d="M103.45 1.453l10.829 24.218h-3.01l-2.733-6.193H95.354l-2.699 6.193h-2.94l10.863-24.218h2.872zm-1.523 3.01l-5.431 12.455h10.932l-5.5-12.455zM128.637 7.37c5.154 0 8.753 3.805 8.753 9.237 0 5.397-3.53 9.168-8.684 9.168-3.252 0-5.743-1.488-7.093-4.013v10.621h-2.698V7.473h2.698v3.91c1.35-2.526 3.84-4.014 7.024-4.014zm-.485 2.317c-3.84 0-6.539 2.872-6.539 6.85 0 4.014 2.699 6.85 6.54 6.85 3.805 0 6.503-2.87 6.503-6.85 0-3.944-2.698-6.85-6.504-6.85zM153.062 7.37c5.155 0 8.753 3.805 8.753 9.237 0 5.397-3.529 9.168-8.684 9.168-3.252 0-5.743-1.488-7.092-4.013v10.621h-2.699V7.473h2.699v3.91c1.35-2.526 3.84-4.014 7.023-4.014zm-.484 2.317c-3.84 0-6.54 2.872-6.54 6.85 0 4.014 2.7 6.85 6.54 6.85 3.805 0 6.504-2.87 6.504-6.85 0-3.944-2.699-6.85-6.504-6.85z" transform="translate(69.896 5.977)"/>
            </g>
        </g>
        <g fill="#EE4136">
            <path d="M24.681 50.951l-.619-.41.029.45c.17-.011.34-.022.59-.04m8.393.635l.2.741.982-.223c-.111-.321.485-.648-.016-1.033-.259.456-.648.6-1.166.515m-7.324-1.607c.025.44-.239.754-.706.937.513.243.726 1.029 1.461.694 0-.316.1-.697-.028-.97-.13-.28-.485-.454-.727-.661m-9.205.658c-.65.759-1.2.808-2.004.251-.364-.252-.863-.303-1.078-.784-.029-.063-.273-.03-.487-.047.488.33.719.692.688 1.26-.014.257.268.53.429.817.814.113 1.147.358 1.171.882.018.405-.286.803-.676.883-.539.113-.865-.128-1.16-.878-.62.074-1.062-.149-1.196-.817-.013-.063-.07-.125-.123-.172-.695-.623-.746-.996-.211-1.776-.313-.122-.57-.255-.927-.028-.562.355-1.122.112-1.489-.505l-.863.907c.296.317.346.57.083.822-.226.217-.483.22-.717.013-.254-.225-.202-.525.147-.925-.607-.164-.852-.605-.877-1.124-.381 0-.758.09-1.056-.026-.297-.115-.515-.435-.786-.681-.521.348-1.046.316-1.357-.146-.257-.381-.166-.924.203-1.195.465-.344.933-.213 1.41.419.068-.074.193-.15.186-.212-.05-.427.245-.81.053-1.283-.198-.489.212-.985.737-1.056.481-.065.947.355.997.862.017.166.123.33.21.481.097.165.218.315.327.469l2.37-.665-.14-.345c-.118.09-.2.165-.292.221-.28.17-.555.145-.751-.118-.207-.278-.151-.548.105-.791.14-.134.233-.318.367-.46.217-.227.45-.438.664-.642-.06-.265-.205-.581-.189-.888.046-.86.929-1.37 1.723-1.035.136.057.266.127.4.191l.052.066c.087.365.27.738.239 1.093-.053.603-.378.82-1.306 1.09l.332 1.355c.395-.147.705-.11.918.208.219.326.098.597-.13.885-.105.135-.08.374-.115.566l.16.067c.088-.151.178-.303.265-.456.08-.138.123-.355.239-.402.372-.154.578-.466.844-.73.373-.374.941-.41 1.403-.151.44.247.685.736.615 1.235-.075.538-.428.93-.955 1.038-.172.036-.35.034-.529.05-.062.547.031.627.528.446.084-.03.183-.09.254-.07.556.167.73-.365 1.067-.586.068-.045.046-.26.03-.391-.091-.73.412-1.502 1.133-1.722.743-.227 1.56.108 1.896.777.332.66.373.67 1.013.259-.073-.124-.157-.243-.218-.373-.196-.417-.053-.923.326-1.183.386-.265.906-.226 1.22.112.19.204.367.424.525.655.223.324.145.793-.152 1.1-.08.081-.144.178-.216.268l.132.094c.14-.238.307-.464.41-.716.2-.484.601-.808 1.07-.807.47 0 .924.348 1.06.812.134.46-.048.92-.487 1.239-.077.056-.147.12-.206.22.363-.208.76-.405 1.105-.114.27.229.42.596.64.923 0-.115.004-.26-.001-.404-.018-.518.132-1.008.524-1.322.521-.418 1.087-.813 1.693-1.088.724-.328 1.515.326 1.495 1.136-.006.227.024.463.085.683.214.775.027 1.434-.533 1.998-.303.305-.286.447.113.58.558.187.822.583.883 1.158.407-1.272 1.404-1.692 2.66-1.106-.035-.478.078-.875.55-1.081.422-.183.747-.012 1.024.259l.79-.572c-.286-.188-.568-.48-.343-.88.122-.217.425-.425.672-.459.327-.045.581.207.648.554.081.42-.155.668-.557.852.426.302.687.656.546 1.203-.021.078.225.226.348.342l.133.143c.24.566.251 1.097-.272 1.537.367.294.633.596.493 1.08-.1.347-.321.568-.675.628-.492.083-.824-.153-1.03-.585-.94.54-1.405.434-1.984-.456-.459.41-.969.67-1.613.58-.088-.012-.191.179-.303.203-.255.053-.572.16-.765.06-.17-.09-.351-.508-.277-.65.244-.472-.037-.844-.091-1.326-.31.544-.73.917-1.285.728-.439-.15-.8-.53-1.166-.788.114.96-.064 1.437-.673 1.726-.582.276-1.071.146-1.667-.442l-.029.128c-.319-.063-.693-.042-.943-.208-.407-.27-.216-.7-.038-1.124l-.346.081c-.556.124-.945-.08-1.198-.593-.077-.157-.228-.276-.4-.474-.26 1.29-.934 1.4-1.81.86.022.208.007.351.054.47.143.36.123.682-.11 1.007-.092.13-.081.328-.16.473-.126.23-.242.542-.445.634-.186.084-.569 0-.708-.152-.15-.165-.13-.494-.164-.754-.02-.148.013-.302 0-.45-.052-.605-.02-1.215-.004-1.813.015-.553.603-.74 1.431-.508l.3-1.302c-.2-.476-.336-.801-.467-1.117-.487.11-1.02.216-1.543.362-.11.03-.231.198-.26.322-.105.445-.422.672-.842.561-.625-.165-.625-.165-.73.449l-.063.12M8.095 29.045l.056-.062c-.085-.064-.179-.12-.256-.193-.188-.179-.463-.338-.53-.557-.106-.342-.277-.435-.581-.419l.211.796 1.1.435M9.683 30.8l-1.313-.668-.064.37.105-.048.717 1.146.555-.8m2.594 3.372c-.344-.03-.787.066-.971-.11-.506-.484-1.256-.292-1.68-.779-.222.352-.41.649-.588.928l.802.959.32-.094c-.077-.414.032-.73.434-.826.49-.117.682.234.803.628.907-.435.907-.435.88-.706M10.815 21.44c.302.236.537.425.779.605.062.047.141.082.218.096.255.047.513.081.815.127.69-.656 1.506-.75 2.117.089.427.586.206 1.41-.424 1.772-.71.41-1.453.106-1.834-.693-.37-.062-.693-.162-1.015-.158-.262.003-.574.061-.772.215-.63.485-.777.527-1.384.181l-.525.921c.313.08.7.12 1.02.285.163.086.273.393.293.61.051.56-.429.906-1.167.89-.276 1.01-.103 1.181 1.058 1.045-.439-.961-.2-1.419.845-1.615-.035-.71.271-1.154.823-1.195.453-.034.9.364.938.835.043.534-.36.89-1.09.963.079.722-.088.97-.813 1.252.195.297.384.606.597.898.056.076.184.122.286.138.404.064.748.259.78.67.022.286-.086.645-.264.869-.242.301-.625.271-.987.124-.117-.048-.263-.03-.41.025.644.098 1.242.343 1.44.96.235.727.29 1.512.409 2.185.402.049.774.098 1.148.135.081.008.17-.02.249-.048.517-.187.898-.108 1.15.263.232.345.226.7-.02 1.036-.27.366-.65.432-1.158.22-.05-.02-.101-.031-.225-.07.507.824.53 1.572-.12 2.243-.516.531-1.19.588-2.044.2l-.12.158c-.316.425-.706.55-1.118.36-.429-.197-.593-.614-.47-1.12.03-.122-.026-.266-.057-.525-.246.257-.366.407-.51.53-.59.504-1.357.512-2.018.066-.145-.098-.367-.146-.543-.124-.55.068-.912-.171-1.162-.633-.712.58-1.19.668-1.734.33-.47-.29-.697-.848-.567-1.392.117-.485.581-.886 1.08-.93.656-.059 1.077.234 1.42 1.006l.328-.243c-.257-.504-.218-.932.148-1.398.151-.194.025-.605.025-.825l-1.357-.176c-.38.39-.817.5-1.226.234-.393-.256-.477-.657-.264-1.263-.84-.18-1.213-.634-1.044-1.272.133-.498.703-.813 1.194-.658.63.198.818.736.54 1.506l.767.335c.746-.695 1.292-.62 1.744.287l.607-.478c-.855-.139-1.325-.593-1.351-1.415-1.052-.231-1.455-.668-1.382-1.48.063-.7.585-1.083 1.419-1.122-.048-.481-.178-.976-.122-1.448.062-.525.471-.858.948-1.105.16-.084.305-.319.325-.5.013-.108-.206-.306-.358-.36-.986-.35-1.309-1.375-.64-2.174.307-.366-.014-.626-.09-.921-.075-.29-.217-.562-.361-.92-.007-.002-.15.012-.223-.053-.197-.174-.44-.354-.526-.585-.114-.302.051-.606.363-.724.336-.128.312-.374.33-.539-.454 0-.892.062-1.301-.023-.24-.05-.48-.296-.637-.514-.337-.466-.263-1.137.114-1.569.379-.434 1.026-.573 1.546-.332.61.283.855.852.724 1.681 1.507-.496 2.411.188 2.137 1.676.652-.278 1.112.04 1.435.433.32-.312.571-.625.89-.835.14-.091.442-.02.63.065.466.214.564.69.304 1.317l.287.321c.254-.115.487-.264.74-.316.118-.025.307.108.408.22.233.262.2.548-.037.798-.296.312-.598.255-1.087-.216-.082.496-.932.219-.86.792"/>
            <path d="M12.266 14.395l-.057-.089-.63.323.305.483.382-.717M9.62 9.36c.223 0 .45-.03.662.009.193.035.371.145.608.149-.09-.074-.184-.146-.271-.223-.33-.29-.414-.716-.215-1.088.198-.369.637-.556 1.023-.436.41.128.665.529.636.964-.008.113.001.27.07.34.483.492.578.779.358 1.197-.217.412-.607.534-1.276.38l-.176.423c.166.07.307.118.438.185.104.055.197.132.307.209.186-.1.37-.228.573-.298.57-.196 1.177.11 1.423.684.055.129.116.278.221.36.94.74.89 1.574-.162 2.18l.406.701c.258-.104.554-.17.785-.33.245-.17.43-.43.664-.675-.114-.6-.01-.951.4-1.12.367-.151.704-.083.957.24.265.336.205.682-.156 1.153l.428.983c.222-.057.391-.141.497-.453.136-.403.416-.758.663-1.184l-.22-.767c-.445-.039-.917.027-1.276-.144-.302-.145-.433-.612-.711-.853-.265-.229-.677-.296-.924-.537-.174-.17-.316-.565-.236-.765.245-.612-.067-1.075-.27-1.58-.694.14-1.08 0-1.278-.463-.2-.467-.029-.834.623-1.266-.119-.113-.264-.198-.328-.325-.14-.275-.33-.57-.332-.859-.003-.36.288-.609.65-.7.372-.095.668.053.905.336.066.08.116.176.192.244.743.664.699 1.206-.158 1.707l.165.425c.136-.06.253-.117.373-.165.447-.177.856-.086 1.198.228.329.303.452.685.326 1.134-.13.467.242 1.11.71 1.266.64.212.88.705.896 1.348.31.008.278-.144.236-.365-.08-.417.206-.785.603-.838.39-.051.775.2.808.589.019.218-.088.447-.149.717l.28.297c.586-.478 1.188-.483 1.758-.076.23-.278.444-.536.63-.763l.067-1.502c-.256-.143-.513-.403-.457-.857.01-.072-.077-.188-.15-.233-.322-.195-.516-.483-.31-.809.123-.194.454-.381.672-.361.414.037.556.388.517.822.479.088.732.397.746.89l.796.105.025-.06c-.107-.065-.22-.12-.32-.194-.39-.282-.49-.793-.24-1.187.253-.397.773-.552 1.167-.287.238.16.427.157.688.093 1.154-.28 2.18.804 1.89 1.991-.056.227.041.414.053.6.033.556.376.982.485 1.487.104.482-.157.931-.584 1.148-.437.222-.86.188-1.25-.12-.08-.064-.155-.135-.233-.202l-.068.09c.156.116.3.255.472.346.386.208.767.398.788.926.005.105.127.216.216.305.399.397.417.937.037 1.302-.37.354-.888.324-1.274-.055-.119-.116-.28-.192-.425-.28-.05-.03-.124-.025-.166-.061-.187-.162-.436-.3-.538-.507-.258-.532-.616-1.097-.617-1.648 0-.48.395-.987.697-1.425.11-.158.457-.152.718-.144l.516-.543-1.234-.138c-.117.549-.459 1-1.081 1.17.11 1.16-.819 1.804-1.803 1.217-.39.948-.836 1.192-1.813.972-.234.464-.8.63-1.004 1.179-.13.351-.555.45-.958.438-.12-.003-.321.068-.35.151-.145.422-.416.662-.859.625-.446-.038-.658-.356-.753-.798-.547.52-1.118.605-1.729.148-.051-.039-.139-.05-.206-.043-.576.065-.576.068-.955-.244l-.27.3c.152.456.364.84.382 1.235.013.263-.195.593-.4.797-.447.444-1.157.386-1.6-.068-.505-.519-.46-1.127.133-1.817l-.45-.709c-.06.139-.122.33-.217.501-.101.182-.232.346-.353.522.35.376.4.7.08 1-.298.278-.62.22-1.025-.183-.55.65-1.096.8-1.656.46-.614-.375-.691-.924-.239-1.908-.123.073-.204.128-.29.173-.337.174-.66.149-.96-.085-.302-.236-.365-.552-.307-.918.05-.314.068-.634.099-.936-.808-.203-.805-.203-.907-.935-.011-.082-.07-.16-.11-.237-.276-.517-.206-1.066.182-1.428.38-.354.961-.411 1.402-.138.473.293.643.818.453 1.398l-.047.15c.255.06.508.121.79.19.138-.442.393-.753.925-.632.04-.31.08-.608.118-.913-.979-.479-1.16-.878-.838-1.785-.26-.165-.492-.369-.76-.461-.195-.067-.512-.07-.648.047-.25.214-.5.394-.786.237-.19-.103-.362-.355-.41-.57-.072-.331.172-.53.466-.672.109-.053.204-.182.257-.298.153-.342.403-.618.765-.575.289.034.56.253.826.412.103.061.153.221.258.268.615.273.722.441.63 1.096M37.803 11.066l-.608.309.047.081.813.09-.252-.48m-.636 2.907c-.215-.31-.568-.28-.923-.203-.084.018-.223.129-.215.17.027.121.115.23.18.344l.033-.143.925-.168m3.984-1.814c-.681.394-1.267.035-1.91-.27.134.431.067.78-.332.997l.517.559c.557-.995 1.076-1.136 2.033-.563.05.03.14-.006.24-.013l-.548-.71m-5.92-1.39c.485-.067.732-.33.78-.833.04-.41.308-.688.686-.869.164-.079.283-.258.45-.323.59-.23 1.181-.49 1.797-.61.205-.041.485.3.765.49.543-.283.747-.26 1.251.212.333-.208.726-.371.987.055.109.178.097.545-.02.722-.245.374-.614.25-.945.04l-.394.301 1.173.772c.301-.072.752-.187 1.207-.286.444-.097.815.352.694.827-.041.164-.075.33-.128.564.581-.046 1.006.106 1.206.63.317-.05.549-.11.687-.47.098-.253.317-.43.262-.77-.07-.433.148-.824.54-.988.374-.157.593-.38.714-.746.036-.107.127-.195.237-.357-.982.069-1.697-.23-1.851-1.247-.096-.633.286-1.228.862-1.463.588-.24 1.246-.064 1.643.438.445.562.396 1.164-.16 1.986.96-.127 1.588.212 1.828.986.252.816-.341 1.722-1.192 1.78-.269.018-.494.036-.616.311-.017.039-.052.083-.089.097-.321.128-.741.166-.942.396-.231.265-.385.495-.773.57-.222.044-.402.339-.583.536-.035.038.014.152.018.18.38-.206.728-.495 1.12-.576.38-.08.803.055 1.17.091.047-.282.046-.668.183-.995.158-.374.515-.557.941-.562.726-.009 1.13.446 1.197 1.386.326.066.608.115.887-.215.32-.379.895-.383 1.303-.1.41.284.557.784.376 1.26-.05.134-.118.276-.114.413.02.755-.297 1.228-.901 1.312-.582.08-1.043-.296-1.209-.986-.696-.25-.75-.303-.903-.843h-1.18c.031.43.206.676.772.647.59-.03 1.067.51 1.164 1.148.09.587-.276 1.196-.85 1.418-.587.227-1.261.014-1.61-.514-.081-.122-.144-.256-.155-.276l-1.782-.18-.104.664c.459.01.828.135.917.648.008.044.17.071.264.088.373.064.585.281.605.657.021.383-.192.625-.544.714-.372.094-.619-.107-.8-.418-.06-.099-.144-.242-.232-.254-.414-.055-.625-.305-.734-.675-1.586.646-2.544.078-2.663-1.6-.224.064-.44.156-.664.181-.532.06-1.062-.33-1.18-.879-.053-.245-.155-.357-.39-.466-.28-.13-.502-.386-.807-.635 0 .252.03.513-.009.765-.028.185-.1.417-.235.518-.116.087-.375.072-.526.003-.309-.141-.59-.343-.877-.53-.135-.089-.256-.2-.337-.265l-.949.502c-.218.672-.645 1.052-1.24.99-.68-.072-.995-.478-1.094-1.405-.055.24-.045.542-.187.73-.152.2-.43.365-.681.42-.399.086-.78-.23-.892-.639-.132-.48.07-.816.605-1.093-.356-.084-.77-.186-1.187-.272-.057-.012-.132.048-.197.08-.546.268-1.016.164-1.273-.284-.253-.442-.093-.927.41-1.242.048-.03.094-.062.253-.168-.213-.035-.322-.08-.424-.066-.767.095-1.448-.358-1.567-1.055-.13-.765.333-1.466 1.061-1.607.751-.145 1.414.34 1.585 1.14.023.105.114.242.207.277.467.178.654.53.683 1.024.458.085.822.298.994.769.028.077.174.151.269.155.405.02.823.223 1.213-.074.048-.037.14-.016.234-.022l-.458-.609c-.89.226-1.68.041-1.864-.435-.169-.438.174-1.293.623-1.553.593-.344 1.144-.16 1.688.562M47.158 26.027c.32.03.596.046.869.084.332.048.419-.12.4-.41-.025-.39-.046-.782-.072-1.227-.468-.125-.698-.527-.741-1.025l-.877.106c-.087.783-.221.91-1.072 1.045-.057.009-.101.105-.197.212 1.088-.06 1.432.208 1.69 1.215m1.718 5.695c-.544.393-.89.293-1.099-.336 0 .196.004.352 0 .508-.013.548-.413.927-.958.864-.336-.039-.676-.113-.992-.23-.682-.253-1.012-1-.818-1.72.036-.133.034-.321-.037-.427-.221-.335-.283-.66-.024-.985.253-.317.583-.386.957-.218.052.024.108.038.138.048l.586-.538-.55-1.589c-.91-.143-1.102-.294-1.348-1.139-.679.123-1.288.025-1.614-.674-.281-.6-.059-1.095.34-1.461-.097-.42-.31-.823-.235-1.164.079-.363.47-.646.649-1.002.173-.342.165-.8.39-1.087.442-.564 1.325-.516 1.812.015.472.515.422 1.275-.104 1.751-.108.099-.181.236-.27.356l.445.227c.195-.969.485-1.217 1.31-1.108-.064-.461.072-.816.585-.89.087-.013.177-.03.262-.019.607.087 1.441 1.06 1.433 1.61.295.11.647.142.826.334.18.194.152.566.285.824.086.167.28.354.453.387.793.153.932.216 1.417.868.716-.384 1.13-.375 1.452.03.278.348.26.807-.044 1.14-.339.37-.78.368-1.36-.011-.173.194-.325.418-.528.577-.429.338-.917.392-1.427.186-.504-.203-.743-.142-1.087.264-.066.078-.145.182-.233.199-.463.087-.53.438-.56.668.25.352.513.592.607.885.114.36-.097.696-.455.813-.265.087-.327.22-.364.463-.034.227-.147.443-.226.663l.087.09c.074-.08.162-.152.218-.243.4-.658 1.255-.702 1.658-.083.244.375.212.821-.082 1.154-.298.338-.778.429-1.175.215-.104-.056-.197-.13-.32-.215M36.328 51.369l-.133-.143c-.274-.777-.001-1.275.78-1.372.396-.05.318-.183.133-.417-.624-.786-.306-1.787.636-2.033.616-.16 1.263.223 1.461.857.043.135.085.296.182.385.57.522.537.856-.167 1.247l.059.424 1.028.277c.16-.41.43-.765.954-.736.452.026.718.315.839.74l1.1-.296c-.637-.244-1.103-.58-.853-1.317.129-.378.54-.61.918-.565.47.057.726.38.803 1.013.254.178.449.14.69-.079.39-.353.765-.283 1.305.16l-.013-.014c.187.42.005 1 .548 1.267l-.013-.019c.274.958.034 1.473-.812 1.747.585.24.802.626.602 1.071-.212.472-.664.556-1.244.232-.54.458-1.011.502-1.367.125-.293-.309-.307-.768-.035-1.095.333-.399.765-.402 1.314.001l.413-.302c-.693-.17-1.027-.603-1.054-1.263-.32-.077-.36.08-.372.333-.026.577-.421 1.065-.947 1.045-.523-.021-.96.074-1.334.457.134.664-.022 1.067-.493 1.222-.397.13-.827-.052-1.016-.43-.219-.443-.06-.8.47-1.173l.067-1.16c-.22.822-.736 1.248-1.61 1.092-.376.805-.67 1.017-1.201.89-.367-.088-.665-.473-.662-.854.005-.484.346-.792 1.048-.925l.024-.467c-.352-.076-.635-.11-.948.16-.335.289-.752.202-1.1-.085M47.595 44.38c-.85-.144-1.219-.495-1.207-1.133.01-.53.395-.953.93-1.02.587-.075.997.272 1.225 1.044.642-.022 1.114.225 1.347.862.032.088.146.175.241.208 1.134.394 1.344 1.135.586 2.114l.269.639c.408 0 .797-.051 1.162.02.199.038.4.256.526.442.287.422.214.94-.131 1.31-.386.411-.89.437-1.539.1l-.726.568.208 1.071c.54-.135 1.05.01 1.353.587.299.568.016 1.307-.602 1.489-.328.096-.633.178-.892.416-.099.09-.27.102-.409.15-.06.83-.288 1.162-.824 1.198-.45.032-.845-.248-.93-.657-.113-.537.157-.899.86-1.145.02-.243.04-.49.06-.755-.372-.224-.54-.52-.277-.952.036-.06.03-.166.006-.239-.25-.78-.145-1.03.575-1.392l-.24-1.085c-.14.086-.27.174-.407.246-.464.242-1.04.134-1.38-.254-.332-.377-.379-.942-.113-1.366.282-.451.805-.638 1.314-.489.174.051.474.293.505-.004.026-.24-.203-.65-.422-.743-.743-.316-.935-.466-1.068-1.23"/>
            <path d="M46.783 38.854l.75-.42c-.03-.197-.067-.424-.086-.537-.447-.175-.832-.33-1.22-.475-.09-.032-.192-.042-.287-.035-.561.042-.947-.241-.977-.723-.03-.498.283-.797.872-.833.056-.004.112-.018.197-.032-.046-.128-.088-.235-.123-.343-.151-.458-.032-.914.358-1.19.196-.14.351-.263.303-.527-.005-.028-.004-.064.01-.087.1-.161.169-.369.312-.47.458-.326.913-.693 1.428-.887.38-.143.803.28.874.7.072.421-.173.83-.59.987-.4.15-.592.597-.674.967-.14.629.397 1.017.402 1.561 1.236.14 1.708.48 1.76 1.25.047.715-.378 1.21-1.266 1.449.086.682-.054 1.274-.803 1.514-.65.208-1.072-.144-1.381-.59l-1.089.13c-.162.342-.448.697-.945.788-.97.178-1.703-.622-1.502-1.605.03-.147-.027-.366-.127-.478-.472-.53-.545-1.123-.162-1.662.356-.5.982-.68 1.537-.444.579.247.863.846.733 1.512-.029.152-.004.315-.004.553.894-.56 1.083-.56 1.7-.073M12.488 42.583c-.017-.023-.034-.046-.053-.067l-.503-1.18c-.246-.103-.486-.071-.728.257-.319.431-.808.513-1.322.38l-.449.557c.409.624.424.99.06 1.359-.305.308-.74.355-1.1.121-.418-.271-.487-.675-.222-1.364l-.241-.168c-.388.136-.707.316-1.04.35-.623.062-1.18-.424-1.266-1.016-.096-.665.251-1.224.865-1.43.17-.057.362-.138.473-.268.4-.472.82-.476 1.205.025.052.066.08.15.186.2-.102-.852.034-1.544.917-1.807.633-.189 1.108.097 1.495.762.368-.15.713-.367 1.083-.423.54-.082.972.206 1.159.711.12.327.282.369.585.35.836-.055 1.526.48 1.692 1.269.162.778-.287 1.585-1.06 1.835-.66.214-1.259.086-1.736-.453M50.402 34.036c-.581-.663-.643-1.248-.202-1.765.395-.464 1.061-.558 1.566-.221.565.376.665 1.004.281 1.765.722.943.622 1.554-.356 2.183.716.04 1.168.409 1.246 1.019.066.51-.269 1.023-.785 1.207-.517.184-1.102-.045-1.37-.535-.29-.536-.122-1.087.498-1.62-1.155-.439-1.412-1.018-.878-2.033M51.372 41.253c.108.408.245.749.273 1.098.018.237-.045.563-.203.707-.155.142-.476.148-.72.136-.239-.011-.469-.14-.708-.183-.586-.104-1.045-.647-1.017-1.229.03-.614.552-1.172 1.155-1.22.218-.017.439-.002.658-.002-.056-1.062.431-1.701 1.3-1.693.686.006 1.223.584 1.158 1.245-.085.861-.784 1.316-1.896 1.141M32.419 48.02c.136.042.263.074.384.12.476.185.699.659.529 1.114-.181.483-.686.73-1.157.51-.241-.113-.409-.11-.648 0-.344.158-.7.089-.995-.172-.31-.276-.358-.625-.285-1.017.028-.156.053-.349-.012-.48-.31-.621-.252-1.211.198-1.63.412-.382 1-.45 1.483-.171.53.305.733.878.549 1.545-.016.055-.029.112-.046.18M45.886 45.445c.088.32.229.635.252.96.038.52.052 1.055-.024 1.569-.07.46-.534.767-1.01.803-.436.032-.89-.224-1.09-.634-.217-.444-.188-.898.154-1.24.327-.325.306-.52-.017-.828-.347-.33-.366-1.005-.118-1.364.242-.35.702-.472 1.194-.318.49.154.768.522.767 1.018l-.108.034zM6.732 53.556c-.518.58-1.028.695-1.452.336-.429-.364-.39-.897.107-1.47-.449-.89-.25-1.38.672-1.69.112-.038.187-.176.297-.23.111-.053.27-.114.362-.071.115.053.24.199.26.321.054.333.057.673.08 1.03.626.011 1.14.182 1.228.794.041.288-.1.681-.296.909-.35.407-.828.291-1.258.07M16.85 55.339c-.593-.006-1.068-.4-1.201-.995-.115-.51.157-1.093.673-1.324.243-.11.354-.233.41-.498.087-.415.387-.669.815-.705.408-.034.729.149.896.527.172.387.097.736-.187 1.068-.111.13-.178.35-.167.523.05.82-.456 1.412-1.24 1.404M41.861 48.384c.017.146.04.263.04.38.005.377-.177.623-.548.696-.393.078-.684-.097-.796-.465-.073-.24-.156-.386-.399-.506-.463-.23-.477-.795-.082-1.153.123-.111.244-.248.308-.398.227-.526.66-.85 1.145-.822.474.028.932.388 1.054.826.147.53-.05 1.009-.548 1.334l-.174.108M19.693 8.439c-.293.267-.615.446-.975.137-.266-.228-.338-.53-.162-.84.22-.388.56-.446.973-.226.273-.963 1.067-.962 1.8-.99.179-.008.489.255.528.439.08.38.098.81.002 1.184-.196.767-1.207 1.055-1.853.573-.106-.079-.199-.175-.313-.277M51.38 19.845c-.6.002-1.083-.383-1.242-.954-.043-.152-.138-.315-.258-.413-.285-.23-.379-.502-.21-.819.174-.33.469-.35.807-.254.148.042.326.023.482-.01.513-.106.975-.049 1.346.359.335.369.422.919.205 1.368-.226.47-.604.717-1.13.723M51.09 8.774c-.754.006-1.322-.559-1.322-1.314 0-.723.567-1.309 1.281-1.325.722-.017 1.348.584 1.36 1.306.013.73-.578 1.328-1.318 1.333M2.849 23.418c-.002-.709.563-1.29 1.258-1.295.681-.005 1.284.593 1.29 1.28.004.69-.583 1.283-1.274 1.289-.701.006-1.272-.565-1.274-1.274M36.453 46.86c-.706.003-1.292-.573-1.283-1.262.01-.666.593-1.249 1.26-1.259.688-.01 1.27.58 1.267 1.28-.004.694-.548 1.237-1.244 1.24M50.82 22.51c-.7-.006-1.229-.54-1.23-1.245-.002-.708.574-1.286 1.265-1.271.679.014 1.24.584 1.243 1.262.003.706-.56 1.26-1.278 1.254M51.704 30.458c-.713-.004-1.23-.526-1.225-1.236.005-.694.562-1.244 1.246-1.23.651.014 1.21.579 1.219 1.23.009.683-.55 1.24-1.24 1.236M46.063 49.513c-.003-.206-.043-.42-.001-.617.086-.404.552-.699.948-.638.45.068.785.435.758.894-.015.256.03.415.246.584.402.316.402.9.05 1.26-.332.34-.888.346-1.24.012-.086-.08-.16-.173-.238-.26l.012.02c.046-.522-.09-.965-.548-1.268l.013.013zM11.58 52.864c.497.41.603.708.384 1.065-.2.325-.501.412-.848.305-.36-.111-.5-.451-.423-.954-.697-.43-.898-.833-.658-1.326.197-.405.673-.597 1.087-.439.528.203.682.64.459 1.349M6.055 38.98c-.38.708-.88.911-1.38.598-.42-.263-.54-.846-.256-1.248.326-.463.86-.485 1.453-.046.25-.298.574-.484.897-.174.136.131.199.476.127.658-.145.366-.485.383-.841.211M45.466 10.412c-.016.464-.207.718-.548.821-.358.108-.67 0-.898-.314-.15-.21-.299-.422-.464-.619-.285-.34-.261-.823.069-1.116.328-.291.83-.268 1.111.07.212.253.413.517.594.793.085.13.112.296.136.365M17.957 8.571c.54.243.999.39 1.39.642.318.206.294.657.04.948-.255.29-.698.322-1.004.087-.215-.165-.484-.278-.654-.478-.153-.18-.32-.474-.272-.668.053-.215.34-.373.5-.53M28.419 54.996c.003.495-.362.869-.859.878-.534.01-.904-.343-.907-.867-.002-.501.358-.875.853-.885.514-.011.91.368.913.874M58.615 33.657c-.485-.008-.886-.414-.873-.885.014-.476.429-.87.907-.86.479.01.88.421.87.894-.01.481-.41.858-.904.85M45.994 42.189c.008.492-.367.894-.848.908-.47.013-.887-.39-.897-.867-.01-.487.372-.889.855-.901.486-.012.882.37.89.86M1.427 42.723c.007-.49.405-.875.888-.863.482.013.866.417.856.902-.01.477-.427.882-.896.869-.48-.014-.856-.415-.848-.908M14.031 28.328c-.485.002-.893-.391-.897-.865-.004-.462.417-.89.882-.894.464-.005.889.412.894.879.005.479-.392.878-.879.88M33.945 9.663c-.493.007-.893-.37-.904-.852-.01-.468.398-.886.872-.894.474-.009.894.391.907.862.012.472-.39.877-.875.884M4.244 12.706c0 .514-.382.885-.902.879-.505-.007-.853-.364-.853-.876 0-.518.34-.867.85-.873.528-.007.905.356.905.87M13.487 32.056c-.49-.002-.89-.397-.887-.872.004-.468.421-.877.895-.876.473.002.887.415.885.884-.002.48-.402.866-.893.864M41.374 57.139c-.001.497-.378.872-.874.87-.485-.002-.884-.398-.883-.875.002-.477.403-.87.888-.87.496 0 .87.377.869.875M13.828 37.61c.496-.009.893.364.905.849.012.466-.396.89-.869.9-.469.01-.893-.394-.908-.864-.015-.472.384-.876.872-.885M3.561 45.234c-.002-.493.382-.89.863-.894.467-.003.883.414.885.885.003.472-.407.89-.876.895-.475.004-.87-.396-.872-.886M29.857.996c-.01-.484.378-.897.854-.91.458-.012.894.407.907.87.012.46-.403.895-.867.91-.474.013-.884-.386-.894-.87M28.797 14.646c.006-.5.382-.86.886-.852.487.009.88.41.868.885-.013.474-.428.871-.902.862-.485-.008-.858-.4-.852-.895M47.813 18.4c-.003-.5.369-.88.863-.88.49-.001.88.384.882.87.002.477-.398.886-.873.891-.477.006-.869-.39-.872-.881M53.657 10.374c-.497 0-.877-.377-.875-.87 0-.486.392-.876.878-.875.478.001.886.406.886.879 0 .477-.399.866-.889.866M7.436 6.997c-.497-.005-.867-.386-.858-.883.008-.485.412-.88.887-.87.468.01.878.434.871.899-.007.479-.408.858-.9.854M38.545 6.64c-.488-.002-.887-.395-.885-.87.003-.464.425-.882.891-.881.473 0 .878.41.878.886-.002.493-.385.869-.884.866M51.012 3.99c.005-.487.402-.887.875-.882.466.006.88.428.877.894-.002.476-.408.873-.89.87-.495-.002-.866-.383-.862-.883M48.845 5.755c-.496-.005-.861-.383-.854-.885.006-.486.407-.882.882-.871.475.01.87.421.864.899-.007.487-.398.863-.892.857M23.96 7.53c-.498-.008-.864-.387-.855-.886.008-.485.41-.875.889-.865.48.01.864.413.856.9-.008.492-.39.858-.89.85M23.246 53.749c.005.505-.359.874-.86.877-.5.003-.881-.368-.885-.86-.004-.484.385-.883.867-.888.483-.005.874.381.878.871M.869 55.16c-.5 0-.871-.374-.869-.873.002-.487.392-.877.877-.875.483.003.87.396.869.883-.002.497-.377.867-.877.865"/>
            <path d="M44.587 33.693c.495-.001.872.373.874.869.001.496-.373.876-.867.877-.488.002-.877-.383-.88-.87-.002-.487.383-.874.873-.876M51.87 53.961c.006.553-.17.82-.563.839-.344.017-.569-.147-.637-.486-.08-.394.133-.626.67-.756.062-.598.237-.842.616-.856.302-.01.599.262.627.576.03.342-.203.565-.714.683M53.043 56.587c-.466 0-.844-.353-.842-.788.003-.425.395-.79.848-.786.46.004.786.32.795.771.01.478-.313.802-.8.803M23.89 14.682c.45.002.784.336.782.783-.002.436-.356.791-.787.79-.432-.002-.781-.358-.78-.796.001-.448.334-.778.786-.777M43.682 6.932c-.001.453-.33.778-.785.776-.443-.002-.79-.348-.786-.784.004-.425.372-.79.796-.789.433.001.775.353.775.797M52.341 57.868c.436.008.789.368.78.796-.01.423-.386.78-.812.77-.446-.011-.771-.352-.764-.802.008-.451.342-.771.796-.764M22.239 10.407c0 .374-.333.702-.719.708-.395.006-.72-.298-.73-.686-.012-.406.317-.735.73-.73.386.005.719.332.719.708M6.898 43.457c.375-.011.721.322.726.698.004.372-.34.72-.71.72-.36-.001-.675-.312-.689-.681-.015-.397.285-.726.673-.737M8.34 44.342c.373.001.715.351.707.722-.008.372-.363.711-.731.698-.36-.013-.67-.334-.676-.7-.006-.386.321-.721.7-.72M7.97 37.61c.395-.005.722.306.722.688 0 .375-.338.707-.717.704-.369-.003-.674-.304-.688-.678-.016-.402.278-.708.683-.714M50.293 8.986c.387.008.702.337.69.72-.013.388-.337.683-.735.668-.381-.015-.658-.306-.658-.691 0-.398.311-.705.703-.697M20.128 50c-.01.374-.287.633-.666.62-.366-.01-.647-.306-.632-.665.015-.348.334-.649.677-.637.349.013.63.321.621.682M16.544 50.637l.063-.121c.231-.098.469-.289.692-.274.336.023.531.293.516.656-.015.338-.194.552-.531.602-.375.056-.63-.119-.74-.473-.037-.119-.002-.26 0-.39M46.342 55.6c-.364.01-.656-.262-.666-.624-.01-.355.274-.66.626-.671.348-.011.658.28.67.63.011.355-.273.654-.63.665M38.899 56.504c.005.314-.268.6-.584.613-.34.014-.647-.264-.652-.592-.006-.321.303-.623.632-.616.319.006.599.282.604.595M55.63 56.267c.307-.011.58.242.588.545.007.298-.262.577-.566.568-.332-.01-.52-.199-.555-.522-.031-.308.225-.58.534-.59M24.681 50.951c-.25.018-.42.029-.59.04l-.029-.45.62.41"/>
        </g>
    </g>
</svg>
